<svg width="50" height="43" viewBox="0 0 50 43" fill="none" xmlns="http://www.w3.org/2000/svg">
<g clip-path="url(#clip0_27_1509)">
<mask id="mask0_27_1509" style="mask-type:alpha" maskUnits="userSpaceOnUse" x="0" y="0" width="51" height="43">
<path d="M50.0958 7.8084H46.7313C46.1925 6.87449 45.4502 6.07229 44.5522 5.46166L46.5038 3.51003L44.8156 1.82181L42.2174 4.41999C41.6667 4.28829 41.1039 4.21645 40.5172 4.21645C39.9306 4.21645 39.3678 4.28829 38.829 4.41999L36.2189 1.82181L34.5307 3.51003L36.4703 5.46166C35.5843 6.07229 34.842 6.87449 34.3032 7.8084H30.9387V10.203H33.4411C33.3812 10.5982 33.3333 10.9933 33.3333 11.4004V12.5977H30.9387V14.9923H33.3333V16.1896C33.3333 16.5967 33.3812 16.9918 33.4411 17.3869H30.9387V19.7816H34.3032C35.5484 21.9248 37.8592 23.3735 40.5172 23.3735C43.1753 23.3735 45.4861 21.9248 46.7313 19.7816H50.0958V17.3869H47.5934C47.6533 16.9918 47.7011 16.5967 47.7011 16.1896V14.9923H50.0958V12.5977H47.7011V11.4004C47.7011 10.9933 47.6533 10.5982 47.5934 10.203H50.0958V7.8084ZM42.9119 17.3869H38.1226V14.9923H42.9119V17.3869ZM42.9119 12.5977H38.1226V10.203H42.9119V12.5977Z" fill="black"/>
<path d="M6.40394 24.1439C6.40394 23.4409 7.11958 22.8707 8.00172 22.8707H20.8128L20.8112 17.2888C20.3589 17.0424 19.9775 16.6955 19.7002 16.2783C19.4228 15.8612 19.258 15.3864 19.2201 14.8954C19.1822 14.4044 19.2724 13.9122 19.4828 13.4616C19.6931 13.011 20.0173 12.6158 20.427 12.3103H16.0579C15.1453 12.3103 14.4089 11.6164 14.4089 10.7579V1.79523C14.4089 1.38312 14.5826 0.987882 14.8919 0.696473C15.2011 0.405065 15.6205 0.241353 16.0579 0.241353H28.7697C29.6791 0.241353 30.4187 0.935318 30.4187 1.79372V10.7564C30.4187 11.1686 30.245 11.5638 29.9357 11.8552C29.6265 12.1466 29.2071 12.3103 28.7697 12.3103H24.399C24.8087 12.6158 25.1329 13.011 25.3432 13.4616C25.5536 13.9122 25.6438 14.4044 25.6059 14.8954C25.568 15.3864 25.4032 15.8612 25.1258 16.2783C24.8485 16.6955 24.4671 17.0424 24.0148 17.2888V22.8707H36.8259C37.708 22.8707 38.4236 23.4409 38.4236 24.1439V30.4138H43.1786C44.0895 30.4138 44.8276 31.1077 44.8276 31.9661V40.9304C44.8272 41.3422 44.6532 41.7371 44.344 42.0281C44.0348 42.3192 43.6156 42.4827 43.1786 42.4827H30.4668C29.5558 42.4827 28.8177 41.7888 28.8177 40.9304V31.9676C28.8177 31.7636 28.8604 31.5615 28.9433 31.373C29.0261 31.1845 29.1476 31.0132 29.3007 30.8689C29.4538 30.7246 29.6356 30.6101 29.8357 30.532C30.0358 30.454 30.2502 30.4138 30.4668 30.4138H35.2281V25.8607H9.59951V30.4138H14.3592C15.2718 30.4138 16.0099 31.1077 16.0099 31.9661V40.9304C16.0094 41.3422 15.8355 41.7371 15.5263 42.0281C15.2171 42.3192 14.7979 42.4827 14.3608 42.4827H1.64901C0.739655 42.4827 0 41.7888 0 40.9304V31.9676C0 31.7636 0.042653 31.5615 0.125524 31.373C0.208395 31.1845 0.32986 31.0132 0.482985 30.8689C0.63611 30.7246 0.817897 30.6101 1.01796 30.532C1.21803 30.454 1.43246 30.4138 1.64901 30.4138H6.40394V24.1439ZM12.7583 33.431H3.20197V39.4655L12.7583 39.5273V33.431ZM41.6256 33.431H32.0197V39.4655H41.6256V33.431ZM27.2167 3.25859H17.6108V9.29308H27.2167V3.25859Z" fill="black"/>
</mask>
<g mask="url(#mask0_27_1509)">
<rect x="-14" y="-10" width="84" height="66" fill="white"/>
</g>
</g>
<defs>
<clipPath id="clip0_27_1509">
<rect width="50" height="42.2414" fill="white" transform="translate(0 0.241333)"/>
</clipPath>
</defs>
</svg>
